<mxfile host="app.diagrams.net" modified="2023-09-14T10:45:32.118Z" agent="Mozilla/5.0 (Windows NT 10.0; Win64; x64) AppleWebKit/537.36 (KHTML, like Gecko) Chrome/116.0.0.0 Safari/537.36 Edg/116.0.1938.76" etag="SqghZkrphtk8gMGbx09I" version="21.7.5" type="github">
  <diagram name="PÃ¡gina-1" id="ZRgmhtya_rmPF9_ulrrx">
    <mxGraphModel dx="1397" dy="766" grid="1" gridSize="10" guides="1" tooltips="1" connect="1" arrows="1" fold="1" page="1" pageScale="1" pageWidth="827" pageHeight="1169" math="0" shadow="0">
      <root>
        <mxCell id="0" />
        <mxCell id="1" parent="0" />
        <mxCell id="yMD7OEpoz4CYO2ab5ghc-1" value="&lt;font color=&quot;#ff0000&quot;&gt;+5V&lt;/font&gt;" style="pointerEvents=1;verticalLabelPosition=bottom;shadow=0;dashed=0;align=center;html=1;verticalAlign=top;shape=mxgraph.electrical.signal_sources.vss2;fontSize=24;flipV=1;fillColor=#f8cecc;strokeColor=#b85450;" vertex="1" parent="1">
          <mxGeometry x="140" y="921" width="60" height="40" as="geometry" />
        </mxCell>
        <mxCell id="yMD7OEpoz4CYO2ab5ghc-33" style="edgeStyle=orthogonalEdgeStyle;shape=connector;rounded=0;orthogonalLoop=1;jettySize=auto;html=1;exitX=0.5;exitY=0;exitDx=0;exitDy=0;exitPerimeter=0;entryX=1;entryY=0.5;entryDx=0;entryDy=0;entryPerimeter=0;labelBackgroundColor=default;strokeColor=default;fontFamily=Helvetica;fontSize=11;fontColor=default;endArrow=none;endFill=0;" edge="1" parent="1" source="yMD7OEpoz4CYO2ab5ghc-2" target="yMD7OEpoz4CYO2ab5ghc-17">
          <mxGeometry relative="1" as="geometry" />
        </mxCell>
        <mxCell id="yMD7OEpoz4CYO2ab5ghc-2" value="" style="pointerEvents=1;verticalLabelPosition=bottom;shadow=0;dashed=0;align=center;html=1;verticalAlign=top;shape=mxgraph.electrical.signal_sources.protective_earth;" vertex="1" parent="1">
          <mxGeometry x="387.5" y="961" width="25" height="20" as="geometry" />
        </mxCell>
        <mxCell id="yMD7OEpoz4CYO2ab5ghc-29" style="edgeStyle=orthogonalEdgeStyle;shape=connector;rounded=0;orthogonalLoop=1;jettySize=auto;html=1;exitX=0.195;exitY=1;exitDx=0;exitDy=0;exitPerimeter=0;labelBackgroundColor=default;strokeColor=#d79b00;fontFamily=Helvetica;fontSize=11;fontColor=default;endArrow=none;endFill=0;fillColor=#ffe6cc;" edge="1" parent="1" source="yMD7OEpoz4CYO2ab5ghc-3">
          <mxGeometry relative="1" as="geometry">
            <mxPoint x="290" y="720" as="targetPoint" />
            <Array as="points">
              <mxPoint x="140" y="720" />
            </Array>
          </mxGeometry>
        </mxCell>
        <mxCell id="yMD7OEpoz4CYO2ab5ghc-56" style="edgeStyle=orthogonalEdgeStyle;shape=connector;rounded=0;orthogonalLoop=1;jettySize=auto;html=1;exitX=0.8;exitY=1;exitDx=0;exitDy=0;exitPerimeter=0;entryX=0;entryY=0.57;entryDx=0;entryDy=0;entryPerimeter=0;labelBackgroundColor=default;strokeColor=#82b366;fontFamily=Helvetica;fontSize=11;fontColor=default;endArrow=none;endFill=0;fillColor=#d5e8d4;" edge="1" parent="1" source="yMD7OEpoz4CYO2ab5ghc-3" target="yMD7OEpoz4CYO2ab5ghc-50">
          <mxGeometry relative="1" as="geometry">
            <Array as="points">
              <mxPoint x="139" y="480" />
              <mxPoint x="140" y="370" />
            </Array>
          </mxGeometry>
        </mxCell>
        <mxCell id="yMD7OEpoz4CYO2ab5ghc-3" value="" style="verticalLabelPosition=bottom;shadow=0;dashed=0;align=center;html=1;verticalAlign=top;shape=mxgraph.electrical.opto_electronics.opto-coupler;rotation=-90;" vertex="1" parent="1">
          <mxGeometry x="60" y="540" width="99" height="60" as="geometry" />
        </mxCell>
        <mxCell id="yMD7OEpoz4CYO2ab5ghc-28" style="edgeStyle=orthogonalEdgeStyle;rounded=0;orthogonalLoop=1;jettySize=auto;html=1;exitX=0.195;exitY=1;exitDx=0;exitDy=0;exitPerimeter=0;entryX=0;entryY=0.5;entryDx=0;entryDy=0;entryPerimeter=0;endArrow=none;endFill=0;" edge="1" parent="1" source="yMD7OEpoz4CYO2ab5ghc-7" target="yMD7OEpoz4CYO2ab5ghc-17">
          <mxGeometry relative="1" as="geometry">
            <mxPoint x="220" y="760" as="targetPoint" />
            <Array as="points">
              <mxPoint x="210" y="690" />
            </Array>
          </mxGeometry>
        </mxCell>
        <mxCell id="yMD7OEpoz4CYO2ab5ghc-32" style="edgeStyle=orthogonalEdgeStyle;shape=connector;rounded=0;orthogonalLoop=1;jettySize=auto;html=1;exitX=0.195;exitY=0;exitDx=0;exitDy=0;exitPerimeter=0;labelBackgroundColor=default;strokeColor=#d79b00;fontFamily=Helvetica;fontSize=11;fontColor=default;endArrow=none;endFill=0;fillColor=#ffe6cc;" edge="1" parent="1" source="yMD7OEpoz4CYO2ab5ghc-7">
          <mxGeometry relative="1" as="geometry">
            <mxPoint x="150" y="720" as="targetPoint" />
            <Array as="points">
              <mxPoint x="150" y="640" />
              <mxPoint x="150" y="640" />
            </Array>
          </mxGeometry>
        </mxCell>
        <mxCell id="yMD7OEpoz4CYO2ab5ghc-60" style="edgeStyle=orthogonalEdgeStyle;shape=connector;rounded=0;orthogonalLoop=1;jettySize=auto;html=1;exitX=0.8;exitY=1;exitDx=0;exitDy=0;exitPerimeter=0;entryX=0;entryY=0.57;entryDx=0;entryDy=0;entryPerimeter=0;labelBackgroundColor=default;strokeColor=#9673a6;fontFamily=Helvetica;fontSize=11;fontColor=default;endArrow=none;endFill=0;fillColor=#e1d5e7;" edge="1" parent="1" source="yMD7OEpoz4CYO2ab5ghc-7" target="yMD7OEpoz4CYO2ab5ghc-58">
          <mxGeometry relative="1" as="geometry">
            <Array as="points">
              <mxPoint x="209" y="495" />
              <mxPoint x="160" y="495" />
              <mxPoint x="160" y="440" />
            </Array>
          </mxGeometry>
        </mxCell>
        <mxCell id="yMD7OEpoz4CYO2ab5ghc-61" style="edgeStyle=orthogonalEdgeStyle;shape=connector;rounded=0;orthogonalLoop=1;jettySize=auto;html=1;exitX=0.8;exitY=0;exitDx=0;exitDy=0;exitPerimeter=0;entryX=0.8;entryY=0;entryDx=0;entryDy=0;entryPerimeter=0;labelBackgroundColor=default;strokeColor=#b85450;fontFamily=Helvetica;fontSize=11;fontColor=default;endArrow=none;endFill=0;fillColor=#f8cecc;" edge="1" parent="1" source="yMD7OEpoz4CYO2ab5ghc-7" target="yMD7OEpoz4CYO2ab5ghc-3">
          <mxGeometry relative="1" as="geometry">
            <Array as="points">
              <mxPoint x="149" y="500" />
              <mxPoint x="59" y="500" />
              <mxPoint x="59" y="540" />
            </Array>
          </mxGeometry>
        </mxCell>
        <mxCell id="yMD7OEpoz4CYO2ab5ghc-7" value="" style="verticalLabelPosition=bottom;shadow=0;dashed=0;align=center;html=1;verticalAlign=top;shape=mxgraph.electrical.opto_electronics.opto-coupler;rotation=-90;" vertex="1" parent="1">
          <mxGeometry x="130" y="540" width="99" height="60" as="geometry" />
        </mxCell>
        <mxCell id="yMD7OEpoz4CYO2ab5ghc-31" style="edgeStyle=orthogonalEdgeStyle;shape=connector;rounded=0;orthogonalLoop=1;jettySize=auto;html=1;exitX=0.195;exitY=1;exitDx=0;exitDy=0;exitPerimeter=0;labelBackgroundColor=default;strokeColor=#d79b00;fontFamily=Helvetica;fontSize=11;fontColor=default;endArrow=none;endFill=0;fillColor=#ffe6cc;" edge="1" parent="1" source="yMD7OEpoz4CYO2ab5ghc-8">
          <mxGeometry relative="1" as="geometry">
            <mxPoint x="280" y="720" as="targetPoint" />
            <Array as="points">
              <mxPoint x="280" y="630" />
              <mxPoint x="280" y="630" />
            </Array>
          </mxGeometry>
        </mxCell>
        <mxCell id="yMD7OEpoz4CYO2ab5ghc-62" style="edgeStyle=orthogonalEdgeStyle;shape=connector;rounded=0;orthogonalLoop=1;jettySize=auto;html=1;exitX=0.8;exitY=1;exitDx=0;exitDy=0;exitPerimeter=0;entryX=0.8;entryY=1;entryDx=0;entryDy=0;entryPerimeter=0;labelBackgroundColor=default;strokeColor=default;fontFamily=Helvetica;fontSize=11;fontColor=default;endArrow=none;endFill=0;" edge="1" parent="1" source="yMD7OEpoz4CYO2ab5ghc-8" target="yMD7OEpoz4CYO2ab5ghc-9">
          <mxGeometry relative="1" as="geometry">
            <Array as="points">
              <mxPoint x="279" y="500" />
              <mxPoint x="369" y="500" />
              <mxPoint x="369" y="540" />
            </Array>
          </mxGeometry>
        </mxCell>
        <mxCell id="yMD7OEpoz4CYO2ab5ghc-64" style="edgeStyle=orthogonalEdgeStyle;shape=connector;rounded=0;orthogonalLoop=1;jettySize=auto;html=1;exitX=0.8;exitY=0;exitDx=0;exitDy=0;exitPerimeter=0;entryX=1;entryY=0.57;entryDx=0;entryDy=0;entryPerimeter=0;labelBackgroundColor=default;strokeColor=#6c8ebf;fontFamily=Helvetica;fontSize=11;fontColor=default;endArrow=none;endFill=0;fillColor=#dae8fc;" edge="1" parent="1" source="yMD7OEpoz4CYO2ab5ghc-8" target="yMD7OEpoz4CYO2ab5ghc-50">
          <mxGeometry relative="1" as="geometry">
            <Array as="points">
              <mxPoint x="219" y="480" />
              <mxPoint x="299" y="480" />
              <mxPoint x="299" y="370" />
            </Array>
          </mxGeometry>
        </mxCell>
        <mxCell id="yMD7OEpoz4CYO2ab5ghc-8" value="" style="verticalLabelPosition=bottom;shadow=0;dashed=0;align=center;html=1;verticalAlign=top;shape=mxgraph.electrical.opto_electronics.opto-coupler;rotation=-90;" vertex="1" parent="1">
          <mxGeometry x="200" y="540" width="99" height="60" as="geometry" />
        </mxCell>
        <mxCell id="yMD7OEpoz4CYO2ab5ghc-26" style="edgeStyle=orthogonalEdgeStyle;rounded=0;orthogonalLoop=1;jettySize=auto;html=1;exitX=0.195;exitY=1;exitDx=0;exitDy=0;exitPerimeter=0;entryX=0;entryY=0.5;entryDx=0;entryDy=0;entryPerimeter=0;endArrow=none;endFill=0;" edge="1" parent="1" source="yMD7OEpoz4CYO2ab5ghc-9" target="yMD7OEpoz4CYO2ab5ghc-17">
          <mxGeometry relative="1" as="geometry" />
        </mxCell>
        <mxCell id="yMD7OEpoz4CYO2ab5ghc-30" style="edgeStyle=orthogonalEdgeStyle;shape=connector;rounded=0;orthogonalLoop=1;jettySize=auto;html=1;exitX=0.195;exitY=0;exitDx=0;exitDy=0;exitPerimeter=0;labelBackgroundColor=default;strokeColor=#d79b00;fontFamily=Helvetica;fontSize=11;fontColor=default;endArrow=none;endFill=0;fillColor=#ffe6cc;" edge="1" parent="1" source="yMD7OEpoz4CYO2ab5ghc-9">
          <mxGeometry relative="1" as="geometry">
            <mxPoint x="290" y="720" as="targetPoint" />
            <Array as="points">
              <mxPoint x="290" y="630" />
              <mxPoint x="290" y="630" />
            </Array>
          </mxGeometry>
        </mxCell>
        <mxCell id="yMD7OEpoz4CYO2ab5ghc-63" style="edgeStyle=orthogonalEdgeStyle;shape=connector;rounded=0;orthogonalLoop=1;jettySize=auto;html=1;exitX=0.8;exitY=0;exitDx=0;exitDy=0;exitPerimeter=0;entryX=1;entryY=0.57;entryDx=0;entryDy=0;entryPerimeter=0;labelBackgroundColor=default;strokeColor=#6c8ebf;fontFamily=Helvetica;fontSize=11;fontColor=default;endArrow=none;endFill=0;fillColor=#dae8fc;" edge="1" parent="1" source="yMD7OEpoz4CYO2ab5ghc-9" target="yMD7OEpoz4CYO2ab5ghc-58">
          <mxGeometry relative="1" as="geometry">
            <Array as="points">
              <mxPoint x="289" y="495" />
              <mxPoint x="290" y="440" />
            </Array>
          </mxGeometry>
        </mxCell>
        <mxCell id="yMD7OEpoz4CYO2ab5ghc-9" value="" style="verticalLabelPosition=bottom;shadow=0;dashed=0;align=center;html=1;verticalAlign=top;shape=mxgraph.electrical.opto_electronics.opto-coupler;rotation=-90;" vertex="1" parent="1">
          <mxGeometry x="270" y="540" width="99" height="60" as="geometry" />
        </mxCell>
        <mxCell id="yMD7OEpoz4CYO2ab5ghc-24" style="edgeStyle=orthogonalEdgeStyle;rounded=0;orthogonalLoop=1;jettySize=auto;html=1;exitX=1;exitY=0.5;exitDx=0;exitDy=0;exitPerimeter=0;entryX=0.5;entryY=1;entryDx=0;entryDy=0;entryPerimeter=0;fillColor=#f8cecc;strokeColor=#b85450;endArrow=none;endFill=0;" edge="1" parent="1" source="yMD7OEpoz4CYO2ab5ghc-10" target="yMD7OEpoz4CYO2ab5ghc-1">
          <mxGeometry relative="1" as="geometry" />
        </mxCell>
        <mxCell id="yMD7OEpoz4CYO2ab5ghc-25" style="edgeStyle=orthogonalEdgeStyle;rounded=0;orthogonalLoop=1;jettySize=auto;html=1;exitX=0;exitY=0.5;exitDx=0;exitDy=0;exitPerimeter=0;entryX=0.195;entryY=0;entryDx=0;entryDy=0;entryPerimeter=0;fillColor=#f8cecc;strokeColor=#b85450;endArrow=none;endFill=0;" edge="1" parent="1" source="yMD7OEpoz4CYO2ab5ghc-10" target="yMD7OEpoz4CYO2ab5ghc-3">
          <mxGeometry relative="1" as="geometry" />
        </mxCell>
        <mxCell id="yMD7OEpoz4CYO2ab5ghc-27" style="edgeStyle=orthogonalEdgeStyle;rounded=0;orthogonalLoop=1;jettySize=auto;html=1;exitX=0;exitY=0.5;exitDx=0;exitDy=0;exitPerimeter=0;entryX=0.195;entryY=0;entryDx=0;entryDy=0;entryPerimeter=0;fillColor=#f8cecc;strokeColor=#b85450;endArrow=none;endFill=0;" edge="1" parent="1" source="yMD7OEpoz4CYO2ab5ghc-10" target="yMD7OEpoz4CYO2ab5ghc-8">
          <mxGeometry relative="1" as="geometry">
            <Array as="points">
              <mxPoint x="220" y="650" />
            </Array>
          </mxGeometry>
        </mxCell>
        <mxCell id="yMD7OEpoz4CYO2ab5ghc-45" style="edgeStyle=orthogonalEdgeStyle;shape=connector;rounded=0;orthogonalLoop=1;jettySize=auto;html=1;exitX=1;exitY=0.5;exitDx=0;exitDy=0;exitPerimeter=0;entryX=0.8;entryY=0;entryDx=0;entryDy=0;entryPerimeter=0;labelBackgroundColor=default;strokeColor=#b85450;fontFamily=Helvetica;fontSize=11;fontColor=default;endArrow=none;endFill=0;fillColor=#f8cecc;" edge="1" parent="1" source="yMD7OEpoz4CYO2ab5ghc-10" target="yMD7OEpoz4CYO2ab5ghc-3">
          <mxGeometry relative="1" as="geometry">
            <Array as="points">
              <mxPoint x="40" y="760" />
              <mxPoint x="20" y="760" />
              <mxPoint x="20" y="540" />
            </Array>
          </mxGeometry>
        </mxCell>
        <object label="" Resistencia="560" id="yMD7OEpoz4CYO2ab5ghc-10">
          <mxCell style="pointerEvents=1;verticalLabelPosition=bottom;shadow=0;dashed=0;align=center;html=1;verticalAlign=top;shape=mxgraph.electrical.resistors.resistor_2;rotation=90;" vertex="1" parent="1">
            <mxGeometry x="-10" y="690" width="100" height="20" as="geometry" />
          </mxCell>
        </object>
        <mxCell id="yMD7OEpoz4CYO2ab5ghc-48" style="edgeStyle=orthogonalEdgeStyle;shape=connector;rounded=0;orthogonalLoop=1;jettySize=auto;html=1;exitX=1;exitY=0.5;exitDx=0;exitDy=0;exitPerimeter=0;entryX=0.8;entryY=1;entryDx=0;entryDy=0;entryPerimeter=0;labelBackgroundColor=default;strokeColor=default;fontFamily=Helvetica;fontSize=11;fontColor=default;endArrow=none;endFill=0;" edge="1" parent="1" source="yMD7OEpoz4CYO2ab5ghc-17" target="yMD7OEpoz4CYO2ab5ghc-9">
          <mxGeometry relative="1" as="geometry">
            <Array as="points">
              <mxPoint x="400" y="810" />
              <mxPoint x="440" y="810" />
              <mxPoint x="440" y="540" />
            </Array>
          </mxGeometry>
        </mxCell>
        <object label="" Resistencia="560" id="yMD7OEpoz4CYO2ab5ghc-17">
          <mxCell style="pointerEvents=1;verticalLabelPosition=bottom;shadow=0;dashed=0;align=center;html=1;verticalAlign=top;shape=mxgraph.electrical.resistors.resistor_2;rotation=90;" vertex="1" parent="1">
            <mxGeometry x="350" y="730" width="100" height="20" as="geometry" />
          </mxCell>
        </object>
        <mxCell id="yMD7OEpoz4CYO2ab5ghc-38" style="edgeStyle=orthogonalEdgeStyle;shape=connector;rounded=0;orthogonalLoop=1;jettySize=auto;html=1;exitX=0.5;exitY=0;exitDx=0;exitDy=0;labelBackgroundColor=default;strokeColor=#d79b00;fontFamily=Helvetica;fontSize=11;fontColor=default;endArrow=none;endFill=0;fillColor=#ffe6cc;" edge="1" parent="1" source="yMD7OEpoz4CYO2ab5ghc-36">
          <mxGeometry relative="1" as="geometry">
            <mxPoint x="220" y="720" as="targetPoint" />
          </mxGeometry>
        </mxCell>
        <mxCell id="yMD7OEpoz4CYO2ab5ghc-42" style="edgeStyle=orthogonalEdgeStyle;shape=connector;rounded=0;orthogonalLoop=1;jettySize=auto;html=1;exitX=0;exitY=1;exitDx=0;exitDy=0;labelBackgroundColor=default;strokeColor=#b85450;fontFamily=Helvetica;fontSize=11;fontColor=default;endArrow=none;endFill=0;fillColor=#f8cecc;" edge="1" parent="1" source="yMD7OEpoz4CYO2ab5ghc-36">
          <mxGeometry relative="1" as="geometry">
            <mxPoint x="170" y="900" as="targetPoint" />
            <Array as="points">
              <mxPoint x="270" y="900" />
            </Array>
          </mxGeometry>
        </mxCell>
        <mxCell id="yMD7OEpoz4CYO2ab5ghc-43" style="edgeStyle=orthogonalEdgeStyle;shape=connector;rounded=0;orthogonalLoop=1;jettySize=auto;html=1;exitX=1;exitY=1;exitDx=0;exitDy=0;labelBackgroundColor=default;strokeColor=default;fontFamily=Helvetica;fontSize=11;fontColor=default;endArrow=none;endFill=0;" edge="1" parent="1" source="yMD7OEpoz4CYO2ab5ghc-36">
          <mxGeometry relative="1" as="geometry">
            <mxPoint x="400" y="920" as="targetPoint" />
            <Array as="points">
              <mxPoint x="330" y="900" />
              <mxPoint x="400" y="900" />
            </Array>
          </mxGeometry>
        </mxCell>
        <mxCell id="yMD7OEpoz4CYO2ab5ghc-36" value="" style="pointerEvents=1;verticalLabelPosition=bottom;shadow=0;dashed=0;align=center;html=1;verticalAlign=top;shape=mxgraph.electrical.electro-mechanical.threePositionSwitch2;elSwitchState=1;fontFamily=Helvetica;fontSize=11;fontColor=default;" vertex="1" parent="1">
          <mxGeometry x="270" y="820" width="60" height="60" as="geometry" />
        </mxCell>
        <mxCell id="yMD7OEpoz4CYO2ab5ghc-50" value="" style="verticalLabelPosition=bottom;shadow=0;dashed=0;align=center;html=1;verticalAlign=top;shape=mxgraph.electrical.opto_electronics.led_2;pointerEvents=1;fontFamily=Helvetica;fontSize=11;fillColor=#d5e8d4;strokeColor=#82b366;" vertex="1" parent="1">
          <mxGeometry x="159" y="330" width="120" height="70" as="geometry" />
        </mxCell>
        <mxCell id="yMD7OEpoz4CYO2ab5ghc-58" value="" style="verticalLabelPosition=bottom;shadow=0;dashed=0;align=center;html=1;verticalAlign=top;shape=mxgraph.electrical.opto_electronics.led_2;pointerEvents=1;fontFamily=Helvetica;fontSize=11;fillColor=#e1d5e7;strokeColor=#9673a6;" vertex="1" parent="1">
          <mxGeometry x="159" y="400" width="120" height="70" as="geometry" />
        </mxCell>
        <mxCell id="yMD7OEpoz4CYO2ab5ghc-65" value="" style="ellipse;whiteSpace=wrap;html=1;aspect=fixed;fontFamily=Helvetica;fontSize=11;fillColor=#e1d5e7;strokeColor=#9673a6;" vertex="1" parent="1">
          <mxGeometry x="275" y="876" width="20" height="20" as="geometry" />
        </mxCell>
        <mxCell id="yMD7OEpoz4CYO2ab5ghc-66" value="" style="ellipse;whiteSpace=wrap;html=1;aspect=fixed;fontFamily=Helvetica;fontSize=11;fillColor=#d5e8d4;strokeColor=#82b366;" vertex="1" parent="1">
          <mxGeometry x="306" y="876" width="20" height="20" as="geometry" />
        </mxCell>
      </root>
    </mxGraphModel>
  </diagram>
</mxfile>
